<?xml version="1.0" standalone="no"?>
<!DOCTYPE svg PUBLIC "-//W3C//DTD SVG 20010904//EN"
 "http://www.w3.org/TR/2001/REC-SVG-20010904/DTD/svg10.dtd">
<svg version="1.0" xmlns="http://www.w3.org/2000/svg"
 width="439.000000pt" height="197.000000pt" viewBox="0 0 439.000000 197.000000"
 preserveAspectRatio="xMidYMid meet">

<g transform="translate(0.000000,197.000000) scale(0.100000,-0.100000)"
fill="#000000" stroke="none">
<path d="M905 1959 c-49 -5 -133 -22 -185 -39 -354 -110 -600 -376 -696 -749
-29 -115 -33 -298 -8 -419 56 -273 246 -522 494 -647 310 -156 704 -133 1041
61 63 36 155 88 204 116 69 38 425 271 510 332 9 7 53 -28 152 -120 362 -335
565 -449 863 -485 550 -65 1055 354 1095 912 23 308 -112 648 -329 831 -195
164 -535 251 -791 204 -176 -33 -359 -110 -516 -216 -100 -68 -270 -214 -384
-329 -60 -61 -115 -111 -122 -111 -25 0 -241 158 -355 260 -159 141 -272 221
-413 290 -156 76 -236 98 -430 114 -22 2 -80 0 -130 -5z m2618 -404 c262 -55
436 -285 437 -575 0 -248 -172 -483 -411 -559 -172 -55 -392 -13 -579 110
-127 83 -380 306 -380 334 0 5 17 24 37 42 l38 32 -65 61 -65 60 120 117 c322
316 596 436 868 378z m-2447 -310 c69 -34 147 -119 170 -187 29 -83 25 -179
-10 -255 -95 -208 -363 -263 -533 -110 -80 73 -126 206 -104 306 28 133 127
240 248 271 63 16 169 4 229 -25z"/>
</g>
</svg>
